<svg xmlns="http://www.w3.org/2000/svg" viewBox="0 0 980 444" width="980" height="444" role="img" aria-label="devmap v0.2.1 vs v0.2.2: query A/B"><title>devmap v0.2.1 vs v0.2.2: query A/B</title><style>
.t{fill:#1f2328;font:12px -apple-system,Segoe UI,Helvetica,Arial,sans-serif}
.m{fill:#59636e;font:11px -apple-system,Segoe UI,Helvetica,Arial,sans-serif}
.h{fill:#1f2328;font:600 15px -apple-system,Segoe UI,Helvetica,Arial,sans-serif}
.bg{fill:#ffffff}
.g{stroke:#d1d9e0;stroke-width:1}
.ax{stroke:#8c959f;stroke-width:1}
.w{stroke:#1f2328;stroke-width:1.2;fill:none}
.k{stroke:#1f2328;stroke-width:2.2}
@media (prefers-color-scheme: dark){
.bg{fill:#0d1117}.t,.h{fill:#e6edf3}.m{fill:#9198a1}.g{stroke:#30363d}.ax{stroke:#6e7681}.w{stroke:#e6edf3}.k{stroke:#e6edf3}
}
</style><rect class="bg" width="980" height="444"/><g transform="translate(0 0)"><text class="h" x="76" y="26">devmap v0.2.1 vs v0.2.2: query A/B</text><text class="m" x="76" y="46">Per-query seconds across rounds and symbols; minimum (bar), median (tick), maximum (whisker).</text><rect x="76.0" y="58" width="10" height="10" rx="2" fill="#898781"/><text class="t" x="90.0" y="67">devmap v0.2.1</text><rect x="193.8" y="58" width="10" height="10" rx="2" fill="#2a78d6"/><text class="t" x="207.8" y="67">devmap v0.2.2</text><line class="g" x1="76" y1="384.0" x2="956.0" y2="384.0"/><text class="m" x="70" y="388.0" text-anchor="end">0.001s</text><line class="g" x1="76" y1="234.0" x2="956.0" y2="234.0"/><text class="m" x="70" y="238.0" text-anchor="end">0.01s</text><line class="g" x1="76" y1="84.0" x2="956.0" y2="84.0"/><text class="m" x="70" y="88.0" text-anchor="end">0.1s</text><line class="ax" x1="76" y1="384.0" x2="956.0" y2="384.0"/><text class="m" transform="translate(14 234.0) rotate(-90)" text-anchor="middle">seconds (log)</text><rect x="267.0" y="166.9" width="28.0" height="217.1" rx="2" fill="#898781"><title>callers / devmap v0.2.1: 0.028s (median 0.0286s, max 0.0304s)</title></rect><path class="w" d="M281.0 166.9V161.6M278.0 161.6h6"/><line class="k" x1="268.0" y1="165.6" x2="294.0" y2="165.6"/><text class="m" x="281.0" y="157.6" text-anchor="middle" font-size="10">0.028s</text><rect x="297.0" y="167.3" width="28.0" height="216.7" rx="2" fill="#2a78d6"><title>callers / devmap v0.2.2: 0.0279s (median 0.029s, max 0.032s)</title></rect><path class="w" d="M311.0 167.3V158.2M308.0 158.2h6"/><line class="k" x1="298.0" y1="164.7" x2="324.0" y2="164.7"/><text class="m" x="311.0" y="154.2" text-anchor="middle" font-size="10">0.0279s</text><text class="t" transform="translate(302.0 400.0) rotate(-32)" text-anchor="end">callers</text><rect x="707.0" y="237.4" width="28.0" height="146.6" rx="2" fill="#898781"><title>search / devmap v0.2.1: 0.0095s (median 0.0102s, max 0.0114s)</title></rect><path class="w" d="M721.0 237.4V225.4M718.0 225.4h6"/><line class="k" x1="708.0" y1="232.5" x2="734.0" y2="232.5"/><text class="m" x="721.0" y="221.4" text-anchor="middle" font-size="10">0.0095s</text><rect x="737.0" y="239.9" width="28.0" height="144.1" rx="2" fill="#2a78d6"><title>search / devmap v0.2.2: 0.00914s (median 0.0101s, max 0.0124s)</title></rect><path class="w" d="M751.0 239.9V219.9M748.0 219.9h6"/><line class="k" x1="738.0" y1="233.4" x2="764.0" y2="233.4"/><text class="m" x="751.0" y="215.9" text-anchor="middle" font-size="10">0.00914s</text><text class="t" transform="translate(742.0 400.0) rotate(-32)" text-anchor="end">search</text></g></svg>
