<svg xmlns="http://www.w3.org/2000/svg" viewBox="0 0 980 444" width="980" height="444" role="img" aria-label="Code-graph tools, queries: 2026-09-13 v0.2.1 (six tools, one repository)"><title>Code-graph tools, queries: 2026-09-13 v0.2.1 (six tools, one repository)</title><style>
.t{fill:#1f2328;font:12px -apple-system,Segoe UI,Helvetica,Arial,sans-serif}
.m{fill:#59636e;font:11px -apple-system,Segoe UI,Helvetica,Arial,sans-serif}
.h{fill:#1f2328;font:600 15px -apple-system,Segoe UI,Helvetica,Arial,sans-serif}
.bg{fill:#ffffff}
.g{stroke:#d1d9e0;stroke-width:1}
.ax{stroke:#8c959f;stroke-width:1}
.w{stroke:#1f2328;stroke-width:1.2;fill:none}
.k{stroke:#1f2328;stroke-width:2.2}
@media (prefers-color-scheme: dark){
.bg{fill:#0d1117}.t,.h{fill:#e6edf3}.m{fill:#9198a1}.g{stroke:#30363d}.ax{stroke:#6e7681}.w{stroke:#e6edf3}.k{stroke:#e6edf3}
}
</style><rect class="bg" width="980" height="444"/><g transform="translate(0 0)"><text class="h" x="76" y="26">Code-graph tools, queries: 2026-09-13 v0.2.1 (six tools, one repository)</text><text class="m" x="76" y="46">Per-symbol minimum averaged over the symbols queried; lower is better. ripgrep is plain text search.</text><rect x="76.0" y="58" width="10" height="10" rx="2" fill="#2a78d6"/><text class="t" x="90.0" y="67">devmap</text><rect x="147.6" y="58" width="10" height="10" rx="2" fill="#eb6834"/><text class="t" x="161.6" y="67">codegraph</text><rect x="239.0" y="58" width="10" height="10" rx="2" fill="#1baf7a"/><text class="t" x="253.0" y="67">cbm</text><rect x="290.8" y="58" width="10" height="10" rx="2" fill="#eda100"/><text class="t" x="304.8" y="67">gitnexus</text><rect x="375.6" y="58" width="10" height="10" rx="2" fill="#e87ba4"/><text class="t" x="389.6" y="67">graphify</text><rect x="460.4" y="58" width="10" height="10" rx="2" fill="#6250d6"/><text class="t" x="474.4" y="67">gortex</text><line class="g" x1="76" y1="384.0" x2="956.0" y2="384.0"/><text class="m" x="70" y="388.0" text-anchor="end">0.01s</text><line class="g" x1="76" y1="284.0" x2="956.0" y2="284.0"/><text class="m" x="70" y="288.0" text-anchor="end">0.1s</text><line class="g" x1="76" y1="184.0" x2="956.0" y2="184.0"/><text class="m" x="70" y="188.0" text-anchor="end">1s</text><line class="g" x1="76" y1="84.0" x2="956.0" y2="84.0"/><text class="m" x="70" y="88.0" text-anchor="end">10s</text><line class="ax" x1="76" y1="384.0" x2="956.0" y2="384.0"/><text class="m" transform="translate(14 234.0) rotate(-90)" text-anchor="middle">seconds (log)</text><rect x="207.0" y="345.6" width="28.0" height="38.4" rx="2" fill="#2a78d6"><title>search / devmap: 0.0242s (median 0.0256s, max 0.0422s)</title></rect><path class="w" d="M221.0 345.6V321.4M218.0 321.4h6"/><line class="k" x1="208.0" y1="343.2" x2="234.0" y2="343.2"/><text class="m" x="221.0" y="317.4" text-anchor="middle" font-size="10">0.0242s</text><rect x="237.0" y="278.3" width="28.0" height="105.7" rx="2" fill="#eb6834"><title>search / codegraph: 0.114s (median 0.128s, max 0.21s)</title></rect><path class="w" d="M251.0 278.3V251.8M248.0 251.8h6"/><line class="k" x1="238.0" y1="273.3" x2="264.0" y2="273.3"/><text class="m" x="251.0" y="247.8" text-anchor="middle" font-size="10">0.114s</text><rect x="267.0" y="123.0" width="28.0" height="261.0" rx="2" fill="#1baf7a"><title>search / cbm: 4.08s (median 4.14s, max 4.34s)</title></rect><path class="w" d="M281.0 123.0V120.3M278.0 120.3h6"/><line class="k" x1="268.0" y1="122.3" x2="294.0" y2="122.3"/><text class="m" x="281.0" y="116.3" text-anchor="middle" font-size="10">4.08s</text><rect x="297.0" y="191.1" width="28.0" height="192.9" rx="2" fill="#eda100"><title>search / gitnexus: 0.85s (median 0.891s, max 1.37s)</title></rect><path class="w" d="M311.0 191.1V170.4M308.0 170.4h6"/><line class="k" x1="298.0" y1="189.0" x2="324.0" y2="189.0"/><text class="m" x="311.0" y="166.4" text-anchor="middle" font-size="10">0.85s</text><rect x="327.0" y="218.4" width="28.0" height="165.6" rx="2" fill="#e87ba4"><title>search / graphify: 0.453s (median 0.485s, max 0.668s)</title></rect><path class="w" d="M341.0 218.4V201.5M338.0 201.5h6"/><line class="k" x1="328.0" y1="215.4" x2="354.0" y2="215.4"/><text class="m" x="341.0" y="197.5" text-anchor="middle" font-size="10">0.453s</text><rect x="357.0" y="289.6" width="28.0" height="94.4" rx="2" fill="#6250d6"><title>search / gortex: 0.0879s (median 0.0896s, max 0.098s)</title></rect><path class="w" d="M371.0 289.6V284.9M368.0 284.9h6"/><line class="k" x1="358.0" y1="288.8" x2="384.0" y2="288.8"/><text class="m" x="371.0" y="280.9" text-anchor="middle" font-size="10">0.0879s</text><text class="t" transform="translate(302.0 400.0) rotate(-32)" text-anchor="end">search</text><rect x="647.0" y="324.1" width="28.0" height="59.9" rx="2" fill="#2a78d6"><title>callers / devmap: 0.0397s (median 0.0436s, max 0.0616s)</title></rect><path class="w" d="M661.0 324.1V305.0M658.0 305.0h6"/><line class="k" x1="648.0" y1="320.0" x2="674.0" y2="320.0"/><text class="m" x="661.0" y="301.0" text-anchor="middle" font-size="10">0.0397s</text><rect x="677.0" y="281.1" width="28.0" height="102.9" rx="2" fill="#eb6834"><title>callers / codegraph: 0.107s (median 0.119s, max 0.174s)</title></rect><path class="w" d="M691.0 281.1V260.0M688.0 260.0h6"/><line class="k" x1="678.0" y1="276.4" x2="704.0" y2="276.4"/><text class="m" x="691.0" y="256.0" text-anchor="middle" font-size="10">0.107s</text><rect x="707.0" y="123.2" width="28.0" height="260.8" rx="2" fill="#1baf7a"><title>callers / cbm: 4.05s (median 4.2s, max 4.95s)</title></rect><path class="w" d="M721.0 123.2V114.5M718.0 114.5h6"/><line class="k" x1="708.0" y1="121.7" x2="734.0" y2="121.7"/><text class="m" x="721.0" y="110.5" text-anchor="middle" font-size="10">4.05s</text><rect x="737.0" y="191.6" width="28.0" height="192.4" rx="2" fill="#eda100"><title>callers / gitnexus: 0.84s (median 0.877s, max 1.09s)</title></rect><path class="w" d="M751.0 191.6V180.2M748.0 180.2h6"/><line class="k" x1="738.0" y1="189.7" x2="764.0" y2="189.7"/><text class="m" x="751.0" y="176.2" text-anchor="middle" font-size="10">0.84s</text><rect x="767.0" y="252.2" width="28.0" height="131.8" rx="2" fill="#e87ba4"><title>callers / graphify: 0.208s (median 0.222s, max 0.298s)</title></rect><path class="w" d="M781.0 252.2V236.6M778.0 236.6h6"/><line class="k" x1="768.0" y1="249.4" x2="794.0" y2="249.4"/><text class="m" x="781.0" y="232.6" text-anchor="middle" font-size="10">0.208s</text><rect x="797.0" y="292.1" width="28.0" height="91.9" rx="2" fill="#6250d6"><title>callers / gortex: 0.0829s (median 0.0853s, max 0.362s)</title></rect><path class="w" d="M811.0 292.1V228.1M808.0 228.1h6"/><line class="k" x1="798.0" y1="290.9" x2="824.0" y2="290.9"/><text class="m" x="811.0" y="224.1" text-anchor="middle" font-size="10">0.0829s</text><text class="t" transform="translate(742.0 400.0) rotate(-32)" text-anchor="end">callers</text></g></svg>
