<svg xmlns="http://www.w3.org/2000/svg" viewBox="0 0 991 481" width="991" height="481" role="img" aria-label="Effectiveness: planning cost of arm B"><title>Effectiveness: planning cost of arm B</title><style>
.t{fill:#1f2328;font:12px -apple-system,Segoe UI,Helvetica,Arial,sans-serif}
.m{fill:#59636e;font:11px -apple-system,Segoe UI,Helvetica,Arial,sans-serif}
.h{fill:#1f2328;font:600 15px -apple-system,Segoe UI,Helvetica,Arial,sans-serif}
.bg{fill:#ffffff}
.g{stroke:#d1d9e0;stroke-width:1}
.ax{stroke:#8c959f;stroke-width:1}
.w{stroke:#1f2328;stroke-width:1.2;fill:none}
.k{stroke:#1f2328;stroke-width:2.2}
@media (prefers-color-scheme: dark){
.bg{fill:#0d1117}.t,.h{fill:#e6edf3}.m{fill:#9198a1}.g{stroke:#30363d}.ax{stroke:#6e7681}.w{stroke:#e6edf3}.k{stroke:#e6edf3}
}
</style><rect class="bg" width="991" height="481"/><g transform="translate(11 0)"><text class="h" x="76" y="26">Effectiveness: planning cost of arm B</text><text class="m" x="76" y="46">Summed cost_usd of the gated loop per run (arm A and C run on the executor&#39;s own plan).</text><rect x="76.0" y="58" width="10" height="10" rx="2" fill="#2a78d6"/><text class="t" x="90.0" y="67">arm B cost</text><line class="g" x1="76" y1="384.0" x2="956.0" y2="384.0"/><text class="m" x="70" y="388.0" text-anchor="end">$0.00</text><line class="g" x1="76" y1="324.0" x2="956.0" y2="324.0"/><text class="m" x="70" y="328.0" text-anchor="end">$2.00</text><line class="g" x1="76" y1="264.0" x2="956.0" y2="264.0"/><text class="m" x="70" y="268.0" text-anchor="end">$4.00</text><line class="g" x1="76" y1="204.0" x2="956.0" y2="204.0"/><text class="m" x="70" y="208.0" text-anchor="end">$6.00</text><line class="g" x1="76" y1="144.0" x2="956.0" y2="144.0"/><text class="m" x="70" y="148.0" text-anchor="end">$8.00</text><line class="g" x1="76" y1="84.0" x2="956.0" y2="84.0"/><text class="m" x="70" y="88.0" text-anchor="end">$10.00</text><line class="ax" x1="76" y1="384.0" x2="956.0" y2="384.0"/><text class="m" transform="translate(14 234.0) rotate(-90)" text-anchor="middle">USD per run</text><rect x="85.2" y="382.5" width="28.0" height="1.5" rx="2" fill="#2a78d6"><title>06-16 19:03 (n=2) / arm B cost: $0.05</title></rect><text class="m" x="99.2" y="378.5" text-anchor="middle" font-size="10">$0.05</text><text class="t" transform="translate(105.2 400.0) rotate(-32)" text-anchor="end">06-16 19:03 (n=2)</text><rect x="131.5" y="326.6" width="28.0" height="57.4" rx="2" fill="#2a78d6"><title>06-16 19:57 (n=6) / arm B cost: $1.91</title></rect><text class="m" x="145.5" y="322.6" text-anchor="middle" font-size="10">$1.91</text><text class="t" transform="translate(151.5 400.0) rotate(-32)" text-anchor="end">06-16 19:57 (n=6)</text><rect x="177.8" y="372.0" width="28.0" height="12.0" rx="2" fill="#2a78d6"><title>06-16 21:34 (n=1) / arm B cost: $0.40</title></rect><text class="m" x="191.8" y="368.0" text-anchor="middle" font-size="10">$0.40</text><text class="t" transform="translate(197.8 400.0) rotate(-32)" text-anchor="end">06-16 21:34 (n=1)</text><rect x="224.1" y="370.0" width="28.0" height="14.0" rx="2" fill="#2a78d6"><title>06-16 21:53 (n=1) / arm B cost: $0.47</title></rect><text class="m" x="238.1" y="366.0" text-anchor="middle" font-size="10">$0.47</text><text class="t" transform="translate(244.1 400.0) rotate(-32)" text-anchor="end">06-16 21:53 (n=1)</text><rect x="270.4" y="376.0" width="28.0" height="8.0" rx="2" fill="#2a78d6"><title>06-20 15:00 (n=6) / arm B cost: $0.27</title></rect><text class="m" x="284.4" y="372.0" text-anchor="middle" font-size="10">$0.27</text><text class="t" transform="translate(290.4 400.0) rotate(-32)" text-anchor="end">06-20 15:00 (n=6)</text><rect x="316.7" y="375.1" width="28.0" height="8.9" rx="2" fill="#2a78d6"><title>06-20 17:09 (n=6) / arm B cost: $0.30</title></rect><text class="m" x="330.7" y="371.1" text-anchor="middle" font-size="10">$0.30</text><text class="t" transform="translate(336.7 400.0) rotate(-32)" text-anchor="end">06-20 17:09 (n=6)</text><rect x="363.1" y="375.2" width="28.0" height="8.8" rx="2" fill="#2a78d6"><title>06-20 18:28 (n=6) / arm B cost: $0.29</title></rect><text class="m" x="377.1" y="371.2" text-anchor="middle" font-size="10">$0.29</text><text class="t" transform="translate(383.1 400.0) rotate(-32)" text-anchor="end">06-20 18:28 (n=6)</text><rect x="409.4" y="382.6" width="28.0" height="1.4" rx="2" fill="#2a78d6"><title>06-27 22:36 (n=1) / arm B cost: $0.05</title></rect><text class="m" x="423.4" y="378.6" text-anchor="middle" font-size="10">$0.05</text><text class="t" transform="translate(429.4 400.0) rotate(-32)" text-anchor="end">06-27 22:36 (n=1)</text><rect x="455.7" y="380.2" width="28.0" height="3.8" rx="2" fill="#2a78d6"><title>06-27 22:59 (n=3) / arm B cost: $0.13</title></rect><text class="m" x="469.7" y="376.2" text-anchor="middle" font-size="10">$0.13</text><text class="t" transform="translate(475.7 400.0) rotate(-32)" text-anchor="end">06-27 22:59 (n=3)</text><rect x="502.0" y="380.1" width="28.0" height="3.9" rx="2" fill="#2a78d6"><title>06-28 00:00 (n=3) / arm B cost: $0.13</title></rect><text class="m" x="516.0" y="376.1" text-anchor="middle" font-size="10">$0.13</text><text class="t" transform="translate(522.0 400.0) rotate(-32)" text-anchor="end">06-28 00:00 (n=3)</text><rect x="548.3" y="383.1" width="28.0" height="1.0" rx="2" fill="#2a78d6"><title>06-28 00:08 (n=1) / arm B cost: $0.03</title></rect><text class="m" x="562.3" y="379.1" text-anchor="middle" font-size="10">$0.03</text><text class="t" transform="translate(568.3 400.0) rotate(-32)" text-anchor="end">06-28 00:08 (n=1)</text><rect x="594.6" y="317.0" width="28.0" height="67.0" rx="2" fill="#2a78d6"><title>06-28 00:42 (n=3) / arm B cost: $2.23</title></rect><text class="m" x="608.6" y="313.0" text-anchor="middle" font-size="10">$2.23</text><text class="t" transform="translate(614.6 400.0) rotate(-32)" text-anchor="end">06-28 00:42 (n=3)</text><rect x="640.9" y="369.8" width="28.0" height="14.2" rx="2" fill="#2a78d6"><title>06-29 18:22 (n=1) / arm B cost: $0.47</title></rect><text class="m" x="654.9" y="365.8" text-anchor="middle" font-size="10">$0.47</text><text class="t" transform="translate(660.9 400.0) rotate(-32)" text-anchor="end">06-29 18:22 (n=1)</text><rect x="687.3" y="368.9" width="28.0" height="15.1" rx="2" fill="#2a78d6"><title>06-29 18:42 (n=1) / arm B cost: $0.50</title></rect><text class="m" x="701.3" y="364.9" text-anchor="middle" font-size="10">$0.50</text><text class="t" transform="translate(707.3 400.0) rotate(-32)" text-anchor="end">06-29 18:42 (n=1)</text><rect x="733.6" y="371.3" width="28.0" height="12.7" rx="2" fill="#2a78d6"><title>06-29 18:53 (n=1) / arm B cost: $0.42</title></rect><text class="m" x="747.6" y="367.3" text-anchor="middle" font-size="10">$0.42</text><text class="t" transform="translate(753.6 400.0) rotate(-32)" text-anchor="end">06-29 18:53 (n=1)</text><rect x="779.9" y="373.6" width="28.0" height="10.4" rx="2" fill="#2a78d6"><title>07-03 10:08 (n=11) / arm B cost: $0.35</title></rect><text class="m" x="793.9" y="369.6" text-anchor="middle" font-size="10">$0.35</text><text class="t" transform="translate(799.9 400.0) rotate(-32)" text-anchor="end">07-03 10:08 (n=11)</text><rect x="826.2" y="350.0" width="28.0" height="34.0" rx="2" fill="#2a78d6"><title>07-03 19:29 (n=11) / arm B cost: $1.13</title></rect><text class="m" x="840.2" y="346.0" text-anchor="middle" font-size="10">$1.13</text><text class="t" transform="translate(846.2 400.0) rotate(-32)" text-anchor="end">07-03 19:29 (n=11)</text><rect x="872.5" y="378.7" width="28.0" height="5.3" rx="2" fill="#2a78d6"><title>07-03 19:45 (n=2) / arm B cost: $0.18</title></rect><text class="m" x="886.5" y="374.7" text-anchor="middle" font-size="10">$0.18</text><text class="t" transform="translate(892.5 400.0) rotate(-32)" text-anchor="end">07-03 19:45 (n=2)</text><rect x="918.8" y="129.4" width="28.0" height="254.6" rx="2" fill="#2a78d6"><title>07-06 18:25 (n=3) / arm B cost: $8.49</title></rect><text class="m" x="932.8" y="125.4" text-anchor="middle" font-size="10">$8.49</text><text class="t" transform="translate(938.8 400.0) rotate(-32)" text-anchor="end">07-06 18:25 (n=3)</text></g></svg>
