<svg xmlns="http://www.w3.org/2000/svg" viewBox="0 0 991 481" width="991" height="481" role="img" aria-label="Effectiveness: DevCouncil verdicts per run"><title>Effectiveness: DevCouncil verdicts per run</title><style>
.t{fill:#1f2328;font:12px -apple-system,Segoe UI,Helvetica,Arial,sans-serif}
.m{fill:#59636e;font:11px -apple-system,Segoe UI,Helvetica,Arial,sans-serif}
.h{fill:#1f2328;font:600 15px -apple-system,Segoe UI,Helvetica,Arial,sans-serif}
.bg{fill:#ffffff}
.g{stroke:#d1d9e0;stroke-width:1}
.ax{stroke:#8c959f;stroke-width:1}
.w{stroke:#1f2328;stroke-width:1.2;fill:none}
.k{stroke:#1f2328;stroke-width:2.2}
@media (prefers-color-scheme: dark){
.bg{fill:#0d1117}.t,.h{fill:#e6edf3}.m{fill:#9198a1}.g{stroke:#30363d}.ax{stroke:#6e7681}.w{stroke:#e6edf3}.k{stroke:#e6edf3}
}
</style><rect class="bg" width="991" height="481"/><g transform="translate(11 0)"><text class="h" x="76" y="26">Effectiveness: DevCouncil verdicts per run</text><text class="m" x="76" y="46">Arm B verdict counts, all runs that have an arm B (including runs with no baseline arm).</text><rect x="76.0" y="58" width="10" height="10" rx="2" fill="#1baf7a"/><text class="t" x="90.0" y="67">passed</text><rect x="147.6" y="58" width="10" height="10" rx="2" fill="#eda100"/><text class="t" x="161.6" y="67">incomplete</text><rect x="245.6" y="58" width="10" height="10" rx="2" fill="#e34948"/><text class="t" x="259.6" y="67">blocked</text><rect x="323.8" y="58" width="10" height="10" rx="2" fill="#898781"/><text class="t" x="337.8" y="67">error</text><line class="g" x1="76" y1="384.0" x2="956.0" y2="384.0"/><text class="m" x="70" y="388.0" text-anchor="end">0</text><line class="g" x1="76" y1="324.0" x2="956.0" y2="324.0"/><text class="m" x="70" y="328.0" text-anchor="end">3</text><line class="g" x1="76" y1="264.0" x2="956.0" y2="264.0"/><text class="m" x="70" y="268.0" text-anchor="end">6</text><line class="g" x1="76" y1="204.0" x2="956.0" y2="204.0"/><text class="m" x="70" y="208.0" text-anchor="end">9</text><line class="g" x1="76" y1="144.0" x2="956.0" y2="144.0"/><text class="m" x="70" y="148.0" text-anchor="end">12</text><line class="g" x1="76" y1="84.0" x2="956.0" y2="84.0"/><text class="m" x="70" y="88.0" text-anchor="end">15</text><line class="ax" x1="76" y1="384.0" x2="956.0" y2="384.0"/><text class="m" transform="translate(14 234.0) rotate(-90)" text-anchor="middle">tasks</text><rect x="81.6" y="364.0" width="7.3" height="20.0" rx="2" fill="#1baf7a"><title>06-16 19:03 (n=2) / passed: 1</title></rect><text class="m" x="85.3" y="360.0" text-anchor="middle" font-size="10">1</text><rect x="90.9" y="384.0" width="7.3" height="1.0" rx="2" fill="#eda100"><title>06-16 19:03 (n=2) / incomplete: 0</title></rect><rect x="100.2" y="384.0" width="7.3" height="1.0" rx="2" fill="#e34948"><title>06-16 19:03 (n=2) / blocked: 0</title></rect><rect x="109.4" y="364.0" width="7.3" height="20.0" rx="2" fill="#898781"><title>06-16 19:03 (n=2) / error: 1</title></rect><text class="m" x="113.1" y="360.0" text-anchor="middle" font-size="10">1</text><text class="t" transform="translate(105.2 400.0) rotate(-32)" text-anchor="end">06-16 19:03 (n=2)</text><rect x="127.9" y="344.0" width="7.3" height="40.0" rx="2" fill="#1baf7a"><title>06-16 19:57 (n=6) / passed: 2</title></rect><text class="m" x="131.6" y="340.0" text-anchor="middle" font-size="10">2</text><rect x="137.2" y="384.0" width="7.3" height="1.0" rx="2" fill="#eda100"><title>06-16 19:57 (n=6) / incomplete: 0</title></rect><rect x="146.5" y="304.0" width="7.3" height="80.0" rx="2" fill="#e34948"><title>06-16 19:57 (n=6) / blocked: 4</title></rect><text class="m" x="150.1" y="300.0" text-anchor="middle" font-size="10">4</text><rect x="155.7" y="384.0" width="7.3" height="1.0" rx="2" fill="#898781"><title>06-16 19:57 (n=6) / error: 0</title></rect><text class="t" transform="translate(151.5 400.0) rotate(-32)" text-anchor="end">06-16 19:57 (n=6)</text><rect x="174.3" y="384.0" width="7.3" height="1.0" rx="2" fill="#1baf7a"><title>06-16 21:34 (n=1) / passed: 0</title></rect><rect x="183.5" y="384.0" width="7.3" height="1.0" rx="2" fill="#eda100"><title>06-16 21:34 (n=1) / incomplete: 0</title></rect><rect x="192.8" y="364.0" width="7.3" height="20.0" rx="2" fill="#e34948"><title>06-16 21:34 (n=1) / blocked: 1</title></rect><text class="m" x="196.4" y="360.0" text-anchor="middle" font-size="10">1</text><rect x="202.1" y="384.0" width="7.3" height="1.0" rx="2" fill="#898781"><title>06-16 21:34 (n=1) / error: 0</title></rect><text class="t" transform="translate(197.8 400.0) rotate(-32)" text-anchor="end">06-16 21:34 (n=1)</text><rect x="220.6" y="364.0" width="7.3" height="20.0" rx="2" fill="#1baf7a"><title>06-16 21:53 (n=1) / passed: 1</title></rect><text class="m" x="224.2" y="360.0" text-anchor="middle" font-size="10">1</text><rect x="229.8" y="384.0" width="7.3" height="1.0" rx="2" fill="#eda100"><title>06-16 21:53 (n=1) / incomplete: 0</title></rect><rect x="239.1" y="384.0" width="7.3" height="1.0" rx="2" fill="#e34948"><title>06-16 21:53 (n=1) / blocked: 0</title></rect><rect x="248.4" y="384.0" width="7.3" height="1.0" rx="2" fill="#898781"><title>06-16 21:53 (n=1) / error: 0</title></rect><text class="t" transform="translate(244.1 400.0) rotate(-32)" text-anchor="end">06-16 21:53 (n=1)</text><rect x="266.9" y="344.0" width="7.3" height="40.0" rx="2" fill="#1baf7a"><title>06-20 15:00 (n=6) / passed: 2</title></rect><text class="m" x="270.5" y="340.0" text-anchor="middle" font-size="10">2</text><rect x="276.2" y="344.0" width="7.3" height="40.0" rx="2" fill="#eda100"><title>06-20 15:00 (n=6) / incomplete: 2</title></rect><text class="m" x="279.8" y="340.0" text-anchor="middle" font-size="10">2</text><rect x="285.4" y="344.0" width="7.3" height="40.0" rx="2" fill="#e34948"><title>06-20 15:00 (n=6) / blocked: 2</title></rect><text class="m" x="289.1" y="340.0" text-anchor="middle" font-size="10">2</text><rect x="294.7" y="384.0" width="7.3" height="1.0" rx="2" fill="#898781"><title>06-20 15:00 (n=6) / error: 0</title></rect><text class="t" transform="translate(290.4 400.0) rotate(-32)" text-anchor="end">06-20 15:00 (n=6)</text><rect x="313.2" y="344.0" width="7.3" height="40.0" rx="2" fill="#1baf7a"><title>06-20 17:09 (n=6) / passed: 2</title></rect><text class="m" x="316.8" y="340.0" text-anchor="middle" font-size="10">2</text><rect x="322.5" y="364.0" width="7.3" height="20.0" rx="2" fill="#eda100"><title>06-20 17:09 (n=6) / incomplete: 1</title></rect><text class="m" x="326.1" y="360.0" text-anchor="middle" font-size="10">1</text><rect x="331.7" y="324.0" width="7.3" height="60.0" rx="2" fill="#e34948"><title>06-20 17:09 (n=6) / blocked: 3</title></rect><text class="m" x="335.4" y="320.0" text-anchor="middle" font-size="10">3</text><rect x="341.0" y="384.0" width="7.3" height="1.0" rx="2" fill="#898781"><title>06-20 17:09 (n=6) / error: 0</title></rect><text class="t" transform="translate(336.7 400.0) rotate(-32)" text-anchor="end">06-20 17:09 (n=6)</text><rect x="359.5" y="344.0" width="7.3" height="40.0" rx="2" fill="#1baf7a"><title>06-20 18:28 (n=6) / passed: 2</title></rect><text class="m" x="363.2" y="340.0" text-anchor="middle" font-size="10">2</text><rect x="368.8" y="384.0" width="7.3" height="1.0" rx="2" fill="#eda100"><title>06-20 18:28 (n=6) / incomplete: 0</title></rect><rect x="378.1" y="304.0" width="7.3" height="80.0" rx="2" fill="#e34948"><title>06-20 18:28 (n=6) / blocked: 4</title></rect><text class="m" x="381.7" y="300.0" text-anchor="middle" font-size="10">4</text><rect x="387.3" y="384.0" width="7.3" height="1.0" rx="2" fill="#898781"><title>06-20 18:28 (n=6) / error: 0</title></rect><text class="t" transform="translate(383.1 400.0) rotate(-32)" text-anchor="end">06-20 18:28 (n=6)</text><rect x="405.8" y="384.0" width="7.3" height="1.0" rx="2" fill="#1baf7a"><title>06-27 22:36 (n=1) / passed: 0</title></rect><rect x="415.1" y="364.0" width="7.3" height="20.0" rx="2" fill="#eda100"><title>06-27 22:36 (n=1) / incomplete: 1</title></rect><text class="m" x="418.7" y="360.0" text-anchor="middle" font-size="10">1</text><rect x="424.4" y="384.0" width="7.3" height="1.0" rx="2" fill="#e34948"><title>06-27 22:36 (n=1) / blocked: 0</title></rect><rect x="433.6" y="384.0" width="7.3" height="1.0" rx="2" fill="#898781"><title>06-27 22:36 (n=1) / error: 0</title></rect><text class="t" transform="translate(429.4 400.0) rotate(-32)" text-anchor="end">06-27 22:36 (n=1)</text><rect x="452.2" y="384.0" width="7.3" height="1.0" rx="2" fill="#1baf7a"><title>06-27 22:59 (n=3) / passed: 0</title></rect><rect x="461.4" y="344.0" width="7.3" height="40.0" rx="2" fill="#eda100"><title>06-27 22:59 (n=3) / incomplete: 2</title></rect><text class="m" x="465.1" y="340.0" text-anchor="middle" font-size="10">2</text><rect x="470.7" y="364.0" width="7.3" height="20.0" rx="2" fill="#e34948"><title>06-27 22:59 (n=3) / blocked: 1</title></rect><text class="m" x="474.3" y="360.0" text-anchor="middle" font-size="10">1</text><rect x="479.9" y="384.0" width="7.3" height="1.0" rx="2" fill="#898781"><title>06-27 22:59 (n=3) / error: 0</title></rect><text class="t" transform="translate(475.7 400.0) rotate(-32)" text-anchor="end">06-27 22:59 (n=3)</text><rect x="498.5" y="384.0" width="7.3" height="1.0" rx="2" fill="#1baf7a"><title>06-28 00:00 (n=3) / passed: 0</title></rect><rect x="507.7" y="364.0" width="7.3" height="20.0" rx="2" fill="#eda100"><title>06-28 00:00 (n=3) / incomplete: 1</title></rect><text class="m" x="511.4" y="360.0" text-anchor="middle" font-size="10">1</text><rect x="517.0" y="344.0" width="7.3" height="40.0" rx="2" fill="#e34948"><title>06-28 00:00 (n=3) / blocked: 2</title></rect><text class="m" x="520.6" y="340.0" text-anchor="middle" font-size="10">2</text><rect x="526.3" y="384.0" width="7.3" height="1.0" rx="2" fill="#898781"><title>06-28 00:00 (n=3) / error: 0</title></rect><text class="t" transform="translate(522.0 400.0) rotate(-32)" text-anchor="end">06-28 00:00 (n=3)</text><rect x="544.8" y="384.0" width="7.3" height="1.0" rx="2" fill="#1baf7a"><title>06-28 00:08 (n=1) / passed: 0</title></rect><rect x="554.1" y="364.0" width="7.3" height="20.0" rx="2" fill="#eda100"><title>06-28 00:08 (n=1) / incomplete: 1</title></rect><text class="m" x="557.7" y="360.0" text-anchor="middle" font-size="10">1</text><rect x="563.3" y="384.0" width="7.3" height="1.0" rx="2" fill="#e34948"><title>06-28 00:08 (n=1) / blocked: 0</title></rect><rect x="572.6" y="384.0" width="7.3" height="1.0" rx="2" fill="#898781"><title>06-28 00:08 (n=1) / error: 0</title></rect><text class="t" transform="translate(568.3 400.0) rotate(-32)" text-anchor="end">06-28 00:08 (n=1)</text><rect x="591.1" y="384.0" width="7.3" height="1.0" rx="2" fill="#1baf7a"><title>06-28 00:42 (n=3) / passed: 0</title></rect><rect x="600.4" y="344.0" width="7.3" height="40.0" rx="2" fill="#eda100"><title>06-28 00:42 (n=3) / incomplete: 2</title></rect><text class="m" x="604.0" y="340.0" text-anchor="middle" font-size="10">2</text><rect x="609.6" y="364.0" width="7.3" height="20.0" rx="2" fill="#e34948"><title>06-28 00:42 (n=3) / blocked: 1</title></rect><text class="m" x="613.3" y="360.0" text-anchor="middle" font-size="10">1</text><rect x="618.9" y="384.0" width="7.3" height="1.0" rx="2" fill="#898781"><title>06-28 00:42 (n=3) / error: 0</title></rect><text class="t" transform="translate(614.6 400.0) rotate(-32)" text-anchor="end">06-28 00:42 (n=3)</text><rect x="637.4" y="384.0" width="7.3" height="1.0" rx="2" fill="#1baf7a"><title>06-29 18:22 (n=1) / passed: 0</title></rect><rect x="646.7" y="384.0" width="7.3" height="1.0" rx="2" fill="#eda100"><title>06-29 18:22 (n=1) / incomplete: 0</title></rect><rect x="655.9" y="364.0" width="7.3" height="20.0" rx="2" fill="#e34948"><title>06-29 18:22 (n=1) / blocked: 1</title></rect><text class="m" x="659.6" y="360.0" text-anchor="middle" font-size="10">1</text><rect x="665.2" y="384.0" width="7.3" height="1.0" rx="2" fill="#898781"><title>06-29 18:22 (n=1) / error: 0</title></rect><text class="t" transform="translate(660.9 400.0) rotate(-32)" text-anchor="end">06-29 18:22 (n=1)</text><rect x="683.7" y="384.0" width="7.3" height="1.0" rx="2" fill="#1baf7a"><title>06-29 18:42 (n=1) / passed: 0</title></rect><rect x="693.0" y="384.0" width="7.3" height="1.0" rx="2" fill="#eda100"><title>06-29 18:42 (n=1) / incomplete: 0</title></rect><rect x="702.3" y="364.0" width="7.3" height="20.0" rx="2" fill="#e34948"><title>06-29 18:42 (n=1) / blocked: 1</title></rect><text class="m" x="705.9" y="360.0" text-anchor="middle" font-size="10">1</text><rect x="711.5" y="384.0" width="7.3" height="1.0" rx="2" fill="#898781"><title>06-29 18:42 (n=1) / error: 0</title></rect><text class="t" transform="translate(707.3 400.0) rotate(-32)" text-anchor="end">06-29 18:42 (n=1)</text><rect x="730.1" y="384.0" width="7.3" height="1.0" rx="2" fill="#1baf7a"><title>06-29 18:53 (n=1) / passed: 0</title></rect><rect x="739.3" y="364.0" width="7.3" height="20.0" rx="2" fill="#eda100"><title>06-29 18:53 (n=1) / incomplete: 1</title></rect><text class="m" x="742.9" y="360.0" text-anchor="middle" font-size="10">1</text><rect x="748.6" y="384.0" width="7.3" height="1.0" rx="2" fill="#e34948"><title>06-29 18:53 (n=1) / blocked: 0</title></rect><rect x="757.8" y="384.0" width="7.3" height="1.0" rx="2" fill="#898781"><title>06-29 18:53 (n=1) / error: 0</title></rect><text class="t" transform="translate(753.6 400.0) rotate(-32)" text-anchor="end">06-29 18:53 (n=1)</text><rect x="776.4" y="384.0" width="7.3" height="1.0" rx="2" fill="#1baf7a"><title>07-03 10:08 (n=11) / passed: 0</title></rect><rect x="785.6" y="384.0" width="7.3" height="1.0" rx="2" fill="#eda100"><title>07-03 10:08 (n=11) / incomplete: 0</title></rect><rect x="794.9" y="384.0" width="7.3" height="1.0" rx="2" fill="#e34948"><title>07-03 10:08 (n=11) / blocked: 0</title></rect><rect x="804.2" y="164.0" width="7.3" height="220.0" rx="2" fill="#898781"><title>07-03 10:08 (n=11) / error: 11</title></rect><text class="m" x="807.8" y="160.0" text-anchor="middle" font-size="10">11</text><text class="t" transform="translate(799.9 400.0) rotate(-32)" text-anchor="end">07-03 10:08 (n=11)</text><rect x="822.7" y="384.0" width="7.3" height="1.0" rx="2" fill="#1baf7a"><title>07-03 19:29 (n=11) / passed: 0</title></rect><rect x="831.9" y="324.0" width="7.3" height="60.0" rx="2" fill="#eda100"><title>07-03 19:29 (n=11) / incomplete: 3</title></rect><text class="m" x="835.6" y="320.0" text-anchor="middle" font-size="10">3</text><rect x="841.2" y="224.0" width="7.3" height="160.0" rx="2" fill="#e34948"><title>07-03 19:29 (n=11) / blocked: 8</title></rect><text class="m" x="844.8" y="220.0" text-anchor="middle" font-size="10">8</text><rect x="850.5" y="384.0" width="7.3" height="1.0" rx="2" fill="#898781"><title>07-03 19:29 (n=11) / error: 0</title></rect><text class="t" transform="translate(846.2 400.0) rotate(-32)" text-anchor="end">07-03 19:29 (n=11)</text><rect x="869.0" y="384.0" width="7.3" height="1.0" rx="2" fill="#1baf7a"><title>07-03 19:45 (n=2) / passed: 0</title></rect><rect x="878.3" y="384.0" width="7.3" height="1.0" rx="2" fill="#eda100"><title>07-03 19:45 (n=2) / incomplete: 0</title></rect><rect x="887.5" y="344.0" width="7.3" height="40.0" rx="2" fill="#e34948"><title>07-03 19:45 (n=2) / blocked: 2</title></rect><text class="m" x="891.2" y="340.0" text-anchor="middle" font-size="10">2</text><rect x="896.8" y="384.0" width="7.3" height="1.0" rx="2" fill="#898781"><title>07-03 19:45 (n=2) / error: 0</title></rect><text class="t" transform="translate(892.5 400.0) rotate(-32)" text-anchor="end">07-03 19:45 (n=2)</text><rect x="915.3" y="364.0" width="7.3" height="20.0" rx="2" fill="#1baf7a"><title>07-06 18:25 (n=3) / passed: 1</title></rect><text class="m" x="918.9" y="360.0" text-anchor="middle" font-size="10">1</text><rect x="924.6" y="344.0" width="7.3" height="40.0" rx="2" fill="#eda100"><title>07-06 18:25 (n=3) / incomplete: 2</title></rect><text class="m" x="928.2" y="340.0" text-anchor="middle" font-size="10">2</text><rect x="933.8" y="384.0" width="7.3" height="1.0" rx="2" fill="#e34948"><title>07-06 18:25 (n=3) / blocked: 0</title></rect><rect x="943.1" y="384.0" width="7.3" height="1.0" rx="2" fill="#898781"><title>07-06 18:25 (n=3) / error: 0</title></rect><text class="t" transform="translate(938.8 400.0) rotate(-32)" text-anchor="end">07-06 18:25 (n=3)</text></g></svg>
